<svg width="750" height="750" xmlns="http://www.w3.org/2000/svg">

 <g>
  <title>background</title>
  <rect fill="none" id="canvas_background" height="402" width="582" y="-1" x="-1"/>
 </g>
 <g>
  <title>Layer 1</title>
  <rect id="svg_15" height="750" width="750" y="0.75" x="0.75" fill-opacity="null" stroke-opacity="null" stroke-width="1.5" stroke="#000" fill="#000000"/>
  <g id="#ffffffff">
   <path id="svg_4" d="m200.004471,175.002243c16.669983,-0.009995 33.329987,-0.009995 49.999969,0c0.070007,16.669998 -0.389984,33.360001 0.429993,50.020004c16.520004,-0.020004 33.040024,-0.020004 49.559982,-0.020004c0,16.670013 0.01001,33.329971 0.02002,49.989975c49.98999,0.02002 99.98999,0.02002 149.97998,0c0,-16.660004 0.01001,-33.319962 0.02002,-49.969971c16.660034,0.059998 33.359985,-0.430008 50.01001,0.409988c-0.02002,16.52002 -0.030029,33.039993 -0.02002,49.559982c16.660004,0 33.320038,0.01001 49.990021,0.02002c0,16.660004 0.01001,33.319977 0.02002,49.980011c16.659973,0 33.320007,0.01001 49.97998,0.02002c0,16.659973 0.01001,33.319946 0.02002,49.97998c16.659973,0 33.320007,0.01001 49.980042,0.02002c0.01001,49.98999 0.01001,99.98999 0,149.98999c-16.660034,0 -33.320068,0 -49.980042,0c-0.030029,-33.340027 0.01001,-66.670044 -0.02002,-100c-16.659973,-0.01001 -33.320007,-0.01001 -49.97998,0c-0.030029,33.329956 0.01001,66.659973 -0.02002,100c-16.659973,0 -33.320007,0 -49.980011,0c-0.01001,-16.669983 -0.02002,-33.330017 -0.02002,-49.98999c-83.329956,-0.02002 -166.649963,-0.02002 -249.979965,0c-0.01001,16.659973 -0.019989,33.320007 -0.019989,49.98999c-16.660004,0 -33.320007,0 -49.980011,0c-0.029999,-33.340027 0.01001,-66.670044 -0.019989,-100c-16.660004,-0.01001 -33.320007,-0.01001 -49.980011,0c-0.029999,33.329956 0.01001,66.659973 -0.019989,100c-16.660004,0 -33.320007,0 -49.97998,0c-0.02002,-50 -0.02002,-100 0,-149.98999c16.659973,-0.01001 33.319977,-0.02002 49.97998,-0.02002c0,-16.660034 0.01001,-33.320007 0.019989,-49.97998c16.660004,-0.01001 33.320007,-0.02002 49.980011,-0.02002c0,-16.660034 0.01001,-33.320007 0.019989,-49.980011c16.660004,-0.01001 33.320007,-0.02002 49.98999,-0.02002c0,-16.660004 0,-33.319962 0,-49.97998c-16.669983,-0.009995 -33.329987,-0.019989 -49.999969,-0.019989c-0.01001,-16.660004 -0.01001,-33.320007 0,-49.990005m49.999969,150.000015c-0.009979,16.669983 -0.009979,33.329956 0,50c16.670029,0 33.330002,0 49.999985,0c0,-16.670044 0,-33.330017 0,-50c-16.669983,-0.01001 -33.329956,-0.01001 -49.999985,0m199.999985,0c-0.01001,16.669983 -0.01001,33.329956 0,50c16.670044,0 33.330017,0 50,0c0,-16.670044 0,-33.330017 0,-50c-16.669983,-0.01001 -33.329956,-0.01001 -50,0z" fill="#ffffff"/>
   <path id="svg_5" d="m500.004425,175.002243c16.660004,-0.009995 33.330048,-0.009995 50.000031,0c0,16.669998 0,33.330002 0,50c-16.669983,0 -33.340027,0 -50.000031,0c-0.01001,-16.669998 -0.01001,-33.330002 0,-50z" fill="#ffffff"/>
   <path id="svg_6" d="m250.434433,524.972229c33.189987,0.050049 66.37999,0.02002 99.569992,0.030029c0.01001,16.659973 0,33.330017 -0.01001,49.999939c-33.319946,0 -66.649963,0 -99.969955,0c0.059998,-16.679932 -0.429993,-33.369995 0.409973,-50.029968z" fill="#ffffff"/>
   <path id="svg_7" d="m400.004425,525.012268c33.340027,0.27002 66.700012,-0.619995 100.030029,0.419983c-0.02002,16.52002 -0.030029,33.039917 -0.040039,49.569946c-33.329956,0 -66.659973,0 -99.98999,0c-0.01001,-16.669922 -0.01001,-33.329956 0,-49.989929z" fill="#ffffff"/>
  </g>
 </g>
</svg>